<svg width="200" height="200" viewBox="0 0 200 200" fill="none" xmlns="http://www.w3.org/2000/svg">
<path fill-rule="evenodd" clip-rule="evenodd" d="M140.255 47C140.255 44.7909 138.464 43 136.255 43C134.046 43 132.255 44.7909 132.255 47V91.6588C132.116 91.5034 131.949 91.3656 131.754 91.2526L62.7768 51.4287C61.4435 50.6589 59.7768 51.6212 59.7768 53.1608L59.7768 132.809C59.7768 134.348 61.4435 135.31 62.7768 134.541L131.754 94.7167C131.949 94.6038 132.116 94.466 132.255 94.3106V138.969C132.255 141.179 134.045 142.969 136.255 142.969C138.464 142.969 140.255 141.179 140.255 138.969L140.255 47Z" fill="#7950F2"/>
<path fill-rule="evenodd" clip-rule="evenodd" d="M55.7155 104.593L45.9686 99.2002C45.0022 98.6654 43.7852 99.0154 43.2504 99.9819C42.7156 100.948 43.0656 102.165 44.0321 102.7L55.7155 109.165L55.7155 104.593ZM86.9091 126.424L140.032 155.818C140.998 156.352 142.215 156.003 142.75 155.036C143.285 154.07 142.935 152.853 141.968 152.318L90.9523 124.09L86.9091 126.424Z" fill="#343A40"/>
</svg>
