<svg width="32" height="32" viewBox="0 0 32 32" fill="none" xmlns="http://www.w3.org/2000/svg">
<path d="M13.2973 24H18.7027C18.8787 22.3973 19.696 21.0746 21.0227 19.6306C21.1733 19.468 22.132 18.4746 22.2453 18.3333C23.1871 17.1568 23.7773 15.7383 23.9482 14.241C24.119 12.7437 23.8635 11.2287 23.211 9.87028C22.5585 8.51189 21.5356 7.36541 20.2601 6.56287C18.9847 5.76033 17.5084 5.33437 16.0014 5.33405C14.4945 5.33373 13.0181 5.75906 11.7422 6.56105C10.4664 7.36304 9.44301 8.50909 8.78996 9.86721C8.1369 11.2253 7.88073 12.7403 8.05093 14.2376C8.22113 15.7349 8.8108 17.1537 9.75201 18.3306C9.86667 18.4733 10.828 19.468 10.976 19.6293C12.304 21.0746 13.1213 22.3973 13.2973 24ZM18.6667 26.6666H13.3333V28H18.6667V26.6666ZM7.67201 20C6.41626 18.431 5.62927 16.5393 5.40169 14.5426C5.17412 12.5459 5.51521 10.5256 6.38568 8.71429C7.25615 6.90301 8.62059 5.37446 10.3218 4.30474C12.023 3.23502 13.9919 2.66765 16.0014 2.66797C18.011 2.66829 19.9797 3.2363 21.6806 4.30656C23.3814 5.37683 24.7454 6.90581 25.6153 8.71737C26.4852 10.5289 26.8256 12.5494 26.5974 14.546C26.3692 16.5426 25.5816 18.4341 24.3253 20.0026C23.4987 21.032 21.3333 22.6666 21.3333 24.6666V28C21.3333 28.7072 21.0524 29.3855 20.5523 29.8856C20.0522 30.3857 19.3739 30.6666 18.6667 30.6666H13.3333C12.6261 30.6666 11.9478 30.3857 11.4477 29.8856C10.9476 29.3855 10.6667 28.7072 10.6667 28V24.6666C10.6667 22.6666 8.50001 21.032 7.67201 20ZM17.3333 13.3386H20.6667L14.6667 21.3386V16.0053H11.3333L17.3333 7.99997V13.34V13.3386Z" fill="#F1F3F5"/>
</svg>
