<svg width="24" height="24" viewBox="0 0 24 24" fill="none" xmlns="http://www.w3.org/2000/svg">
<path fill-rule="evenodd" clip-rule="evenodd" d="M0 2C0 0.89543 0.895431 0 2 0H22C23.1046 0 24 0.895431 24 2V22C24 23.1046 23.1046 24 22 24H2C0.89543 24 0 23.1046 0 22V2ZM14.2666 11.9333C14.0293 11.9333 13.7973 12.0037 13.5999 12.1356C13.4026 12.2674 13.2488 12.4548 13.158 12.6741C13.0671 12.8934 13.0434 13.1347 13.0897 13.3674C13.136 13.6002 13.2503 13.814 13.4181 13.9818C13.5859 14.1497 13.7997 14.264 14.0325 14.3103C14.2653 14.3566 14.5066 14.3328 14.7258 14.242C14.9451 14.1512 15.1325 13.9973 15.2644 13.8C15.3962 13.6027 15.4666 13.3707 15.4666 13.1333C15.4666 12.8151 15.3402 12.5098 15.1152 12.2848C14.8901 12.0597 14.5849 11.9333 14.2666 11.9333ZM9.27416 12.0245C9.88646 11.7709 10.5884 12.0617 10.842 12.674C11.0957 13.2863 10.8049 13.9882 10.1926 14.2418C9.58031 14.4955 8.87835 14.2047 8.62473 13.5924C8.37111 12.9801 8.66187 12.2782 9.27416 12.0245ZM20 11.859C20 10.8193 19.162 9.97366 18.1333 9.97366C17.6998 9.97362 17.2798 10.1253 16.9463 10.4023C15.7797 9.60999 14.2537 9.12499 12.6247 9.02666L13.358 6.39333L15.5717 6.83333C15.635 7.71599 16.3717 8.41633 17.26 8.41633C18.1933 8.41633 18.9527 7.64966 18.9527 6.70933C18.9527 5.769 18.1667 5 17.2333 5C16.5823 5 16.023 5.373 15.7383 5.959L12.7383 5.36267L11.7017 9.01332L11.5473 9.01766C9.85967 9.09133 8.26934 9.58199 7.05501 10.402C6.7216 10.1239 6.30084 9.97225 5.86668 9.97366C4.83702 9.97366 4.00002 10.8193 4.00002 11.859C3.99855 12.1899 4.0844 12.5153 4.24892 12.8025C4.41344 13.0896 4.65079 13.3282 4.93702 13.4943C4.91708 13.6417 4.90717 13.7903 4.90735 13.939C4.91102 15.2636 5.65702 16.5056 7.00735 17.439C8.34534 18.359 10.117 18.8666 12 18.8666C13.883 18.8666 15.6587 18.359 16.9943 17.437C18.3453 16.5036 19.0893 15.2613 19.0893 13.935C19.089 13.7868 19.0797 13.6387 19.0613 13.4916C19.3477 13.3263 19.5854 13.0882 19.7502 12.8015C19.915 12.5148 20.0012 12.1897 20 11.859ZM17.2667 5.9C17.4249 5.9 17.5796 5.94692 17.7111 6.03482C17.8427 6.12273 17.9452 6.24767 18.0058 6.39385C18.0663 6.54003 18.0822 6.70088 18.0513 6.85607C18.0204 7.01125 17.9442 7.1538 17.8323 7.26568C17.7205 7.37756 17.5779 7.45376 17.4227 7.48462C17.2675 7.51549 17.1067 7.49965 16.9605 7.4391C16.8143 7.37855 16.6894 7.27601 16.6015 7.14445C16.5136 7.01289 16.4667 6.85822 16.4667 6.7C16.4667 6.48782 16.5509 6.28434 16.701 6.13431C16.851 5.98428 17.0545 5.9 17.2667 5.9ZM4.89068 11.859C4.88971 11.5977 4.99241 11.3467 5.17625 11.1611C5.3601 10.9754 5.61007 10.8702 5.87135 10.8687C6.02976 10.869 6.18567 10.9083 6.32535 10.983C5.80868 11.4633 5.42768 11.9967 5.18968 12.5723C5.09532 12.479 5.02033 12.3679 4.96902 12.2455C4.9177 12.1231 4.89108 11.9917 4.89068 11.859ZM16.494 16.7C15.3027 17.5196 13.7073 17.9713 12.0017 17.9713C10.296 17.9713 8.70001 17.5203 7.50968 16.7C6.40968 15.9403 5.80168 14.958 5.80168 13.9333C5.80229 13.6228 5.85817 13.3149 5.96668 13.024C6.15601 12.4993 6.50535 12.008 7.00501 11.5643C7.16112 11.4264 7.32542 11.2981 7.49701 11.18L7.50701 11.173L7.51501 11.1673C8.70568 10.35 10.299 9.90066 12.002 9.90066C13.705 9.90066 15.2987 10.351 16.4893 11.1673L16.497 11.173L16.5083 11.1813C16.6797 11.299 16.8439 11.4268 17 11.564C17.5 12.008 17.8493 12.499 18.0387 13.0243C18.1074 13.215 18.1555 13.4124 18.1823 13.6133C18.1957 13.72 18.2024 13.8274 18.2023 13.935C18.202 14.959 17.5953 15.9413 16.494 16.7ZM18.814 12.5693C18.5763 11.9933 18.1953 11.4597 17.6783 10.9787C17.8186 10.9047 17.9748 10.8662 18.1333 10.8667C18.3946 10.8682 18.6445 10.9734 18.8283 11.1591C19.0121 11.3447 19.1147 11.5957 19.1137 11.857C19.1134 11.9898 19.0868 12.1212 19.0354 12.2436C18.9839 12.366 18.9087 12.4769 18.814 12.57V12.5693ZM14.2407 15.4743L14.241 15.474L14.2426 15.4736C14.2684 15.4481 14.3032 15.4338 14.3395 15.4338C14.3757 15.4338 14.4105 15.4481 14.4363 15.4736L14.8933 15.9226C14.9063 15.9355 14.9166 15.9509 14.9236 15.9677C14.9306 15.9846 14.9342 16.0027 14.9342 16.021C14.9342 16.0393 14.9306 16.0574 14.9236 16.0742C14.9166 16.0911 14.9063 16.1064 14.8933 16.1193C14.78 16.2326 13.732 17.2603 12.0007 17.2676C10.2647 17.2603 9.22132 16.2326 9.10799 16.1193C9.09504 16.1065 9.08476 16.0912 9.07775 16.0743C9.07073 16.0575 9.06712 16.0394 9.06712 16.0211C9.06712 16.0029 9.07073 15.9848 9.07775 15.968C9.08476 15.9511 9.09504 15.9358 9.10799 15.923L9.56466 15.474C9.5905 15.4484 9.62543 15.434 9.66182 15.434C9.69822 15.434 9.73314 15.4484 9.75899 15.474L9.76022 15.4752C9.80918 15.5249 10.6163 16.343 12.0027 16.3496C13.3792 16.343 14.2207 15.4944 14.2407 15.4743Z" fill="#495057"/>
</svg>
