<svg width="24" height="24" viewBox="0 0 24 24" fill="none" xmlns="http://www.w3.org/2000/svg">
<path fill-rule="evenodd" clip-rule="evenodd" d="M2 0C0.895431 0 0 0.89543 0 2V22C0 23.1046 0.89543 24 2 24H22C23.1046 24 24 23.1046 24 22V2C24 0.895431 23.1046 0 22 0H2ZM18.115 8.02667C18.7648 7.94927 19.3998 7.77746 20 7.51667C19.5579 8.16738 19.0034 8.73403 18.3623 9.19001C18.369 9.32667 18.3727 9.46667 18.3727 9.60667C18.3727 13.8767 15.07 18.8 9.02467 18.8C7.24448 18.8049 5.50039 18.2981 4 17.34C4.25999 17.3707 4.52154 17.3863 4.78333 17.3867C6.25821 17.3903 7.69246 16.9036 8.86067 16.0033C7.423 15.9767 6.20933 15.0433 5.79233 13.76C5.99552 13.8003 6.20219 13.8204 6.40933 13.82C6.70126 13.82 6.99193 13.7819 7.274 13.7067C5.774 13.41 4.64067 12.1067 4.64067 10.54V10.5C5.09853 10.7526 5.61058 10.8909 6.13333 10.9033C5.251 10.3233 4.66667 9.33334 4.66667 8.21334C4.66738 7.64202 4.82153 7.08138 5.113 6.59001C5.94383 7.59273 6.97481 8.41098 8.13999 8.99242C9.30518 9.57387 10.5789 9.90569 11.8797 9.96667C11.8221 9.72538 11.7937 9.47806 11.795 9.23001C11.795 7.44667 13.263 6.00001 15.077 6.00001C15.525 5.99918 15.9686 6.08947 16.3806 6.26539C16.7927 6.44131 17.1647 6.69918 17.474 7.02334C18.2085 6.88243 18.9137 6.61754 19.5593 6.24001C19.3114 6.99153 18.7979 7.6268 18.115 8.02667Z" fill="#495057"/>
</svg>
